<svg xmlns="http://www.w3.org/2000/svg" width="60" height="60" viewBox="0 0 60 60"><defs><style>.a{fill:#9dcac5;}.b{fill:#fff;}.c{fill:#fffefe;}.d{fill:none;stroke:#000;stroke-linecap:round;stroke-linejoin:round;stroke-width:0.5px;}.e{fill:#e54f26;}.f{fill:#fab819;}.g{fill:#876969;}.h{fill:#7d6062;}.i{fill:#fbb918;}.j{fill:#63a5a3;}</style></defs><g transform="translate(-36.791 -33.791)"><circle class="a" cx="30" cy="30" r="30" transform="translate(36.791 33.791)"/><path class="b" d="M295.461,215.7a.567.567,0,0,0,.015-.126.554.554,0,0,0-.682-.543.605.605,0,0,0-1.175.024.572.572,0,0,0-.2-.039.558.558,0,0,0-.558.558.6.6,0,0,0,.016.131.584.584,0,0,0,.149,1.148h2.309a.583.583,0,0,0,.128-1.153Z" transform="translate(-226.061 -159.807)"/><path class="c" d="M312.429,154.918a.914.914,0,0,0,.024-.2.9.9,0,0,0-.9-.9.88.88,0,0,0-.2.023.976.976,0,0,0-1.893.039.912.912,0,0,0-.328-.062.9.9,0,0,0-.9.9.851.851,0,0,0,.026.212.941.941,0,0,0,.239,1.851h3.722a.941.941,0,0,0,.206-1.859Z" transform="translate(-239.443 -105.412)"/><line class="d" y1="0.007" x2="0.344" transform="translate(82.515 52.956)"/><line class="d" y1="0.008" x2="0.344" transform="translate(77.67 52.963)"/><path class="e" d="M390.181,173.965l1.163-.482-.672-1.044.658-1.075-1.158-.448-.1-1.256-1.2.317-.818-.958-.785.962-1.224-.293-.069,1.239-1.165.483.673,1.044-.658,1.074,1.158.449.1,1.255,1.2-.316.819.956.785-.962,1.224.294Z" transform="translate(-307.813 -119.484)"/><path class="f" d="M398.152,181.5a2.251,2.251,0,1,1-2.251-2.251A2.251,2.251,0,0,1,398.152,181.5Z" transform="translate(-315.637 -128.538)"/><path class="g" d="M100.56,268.257l13.346-.054-7.09-11.533L100.56,266.9Z" transform="translate(-56.238 -197.058)"/><path class="b" d="M141.414,260.214l.988-1.169.775,1.3.781-.659L142.1,256.67l-1.673,2.734Z" transform="translate(-91.524 -197.058)"/><path class="h" d="M172.29,224.171,182.1,208l10,16.113Z" transform="translate(-119.723 -153.983)"/><path class="h" d="M172.29,224.171,182.1,208l10,16.113Z" transform="translate(-119.723 -153.983)"/><path class="b" d="M230.3,213.181,233.443,208l4.226,6.809-2.031-1.78-.248,1.188-1.407-1.5-2.376,1.653Z" transform="translate(-171.063 -153.983)"/><path class="h" d="M270.98,253.936l9.809-16.266,9.81,16.112Z" transform="translate(-207.068 -180.242)"/><path class="b" d="M338.481,241.069l2.049-3.4,1.992,3.271-.85.908-.941-.78-1.2,1.034Z" transform="translate(-266.809 -180.242)"/><path class="h" d="M356.975,257.679l-7.052-11.349-9.272,14.926h16.325Z" transform="translate(-268.729 -187.907)"/><path class="b" d="M411.807,249.767l-2.136-3.437-1.512,2.433,1.131,1,.977-1.034Z" transform="translate(-328.478 -187.907)"/><path class="i" d="M166.6,310.12s1.073,2.108,12.032,2.223c0,0,10.019.086,11.83-2.223,0,0,3.822,2.677-1.293,6.256,0,0-12.041,2.96-21.037-.316,0,0-2.816-.882-2.912-3.583A3.423,3.423,0,0,1,166.6,310.12Z" transform="translate(-113.466 -244.364)"/><path class="j" d="M144.484,352.1c-2.745,0-2.745,1.146-5.49,1.146s-2.745-1.146-5.49-1.146-2.746,1.146-5.491,1.146-2.745-1.146-5.49-1.146-2.745,1.146-5.49,1.146-2.745-1.146-5.49-1.146-2.745,1.146-5.49,1.146-2.746-1.146-5.491-1.146V344.75c2.745,0,2.745,1.146,5.491,1.146s2.745-1.146,5.49-1.146,2.745,1.146,5.49,1.146,2.745-1.146,5.49-1.146,2.745,1.146,5.49,1.146,2.745-1.146,5.491-1.146,2.745,1.146,5.49,1.146,2.745-1.146,5.49-1.146Z" transform="translate(-56.238 -275.013)"/><path class="b" d="M242.776,308.4l.208-.406-.033-.389-.707-.532H241.7l-.03.924-7.158,7.767-1.494.588-2.715,2.863,1.793,1.481s2.55-2.632,2.6-2.649c.03-.01.2-.942.338-1.677l7.023-7.97Z" transform="translate(-171.064 -241.664)"/><path class="b" d="M166.135,206.117a.737.737,0,0,0,.021-.176.783.783,0,0,0-.783-.784.8.8,0,0,0-.175.021.852.852,0,0,0-1.652.034.759.759,0,0,0-.285-.055.783.783,0,0,0-.783.784.747.747,0,0,0,.023.184.821.821,0,0,0,.209,1.614h3.245a.821.821,0,0,0,.179-1.622Z" transform="translate(-110.518 -150.93)"/></g></svg>