<?xml version="1.0" standalone="no"?><!DOCTYPE svg PUBLIC "-//W3C//DTD SVG 1.1//EN" "http://www.w3.org/Graphics/SVG/1.1/DTD/svg11.dtd"><svg t="1619779825230" class="icon" viewBox="0 0 1024 1024" version="1.1" xmlns="http://www.w3.org/2000/svg" p-id="3935" xmlns:xlink="http://www.w3.org/1999/xlink" width="48" height="48"><defs><style type="text/css"></style></defs><path d="M85.333333 170.368A42.666667 42.666667 0 0 1 127.658667 128h768.682666c23.381333 0 42.325333 18.986667 42.325334 42.368v683.264a42.666667 42.666667 0 0 1-42.325334 42.368H127.658667A42.368 42.368 0 0 1 85.333333 853.632V170.368zM256 640v85.333333h512v-85.333333H256z m0-341.333333v256h256V298.666667H256z m341.333333 0v85.333333h170.666667V298.666667h-170.666667z m0 170.666666v85.333334h170.666667v-85.333334h-170.666667zM341.333333 384h85.333334v85.333333H341.333333V384z" p-id="3936" fill="#bfbfbf"></path></svg>