<?xml version="1.0" standalone="no"?><!DOCTYPE svg PUBLIC "-//W3C//DTD SVG 1.1//EN" "http://www.w3.org/Graphics/SVG/1.1/DTD/svg11.dtd"><svg t="1619780553346" class="icon" viewBox="0 0 1024 1024" version="1.1" xmlns="http://www.w3.org/2000/svg" p-id="6021" xmlns:xlink="http://www.w3.org/1999/xlink" width="48" height="48"><defs><style type="text/css"></style></defs><path d="M323.072 100.864h377.856c28.16 0 50.688-22.528 50.688-50.688S728.576 0 700.928 0H323.072c-28.16 0-50.688 22.528-50.688 50.688s23.04 50.176 50.688 50.176zM189.952 286.72h643.584c28.16 0 50.688-22.528 50.688-50.688s-22.528-50.688-50.688-50.688H189.952c-28.16 0-50.688 22.528-50.688 50.688s23.04 50.688 50.688 50.688zM936.448 374.784H87.552C39.936 374.784 1.024 413.696 1.024 460.8v476.672c0 47.616 38.4 86.016 86.016 86.016h849.408c47.616 0 86.016-38.4 86.016-86.016V460.8c0.512-47.104-38.4-86.016-86.016-86.016z m-297.984 259.584c-8.704 8.704-20.48 13.312-31.744 13.312-11.776 0-23.04-4.608-31.744-13.312l-17.408-17.408V890.88c0 25.088-20.48 45.056-45.056 45.056s-45.056-20.48-45.056-45.056v-273.92l-17.408 17.408c-17.408 17.408-46.08 17.408-64 0-17.408-17.408-17.408-46.08 0-64L480.256 476.16c8.704-8.704 19.968-13.312 31.744-13.312s23.552 4.608 31.744 13.312l94.208 94.208c17.92 17.92 17.92 46.592 0.512 64z" p-id="6022" fill="#bfbfbf"></path></svg>